# xmcd CD database file
#
# Track frame offsets:
#	150
#	21088
#	40156
#	54817
#	70458
#	96880
#	113035
#	143976
#	159811
#	173333
#	198208
#	213846
#	256265
#	275504
#	298873
#
# Disc length: 4123 seconds
#
# Revision: 0
# Processed by: cddbd v1.5.2PL0 Copyright (c) Steve Scherf et al.
# Submitted via: CDex 1.70beta2
#
DISCID=cb10190f
DTITLE=Marty Grosz, Vince Giordano, Dan Block, Rob Garcia, Scott Robinson, Panic Slim - The Hot Winds
DYEAR=2009
DGENRE=Jazz
TTITLE0=Pardon Me Pretty Baby
TTITLE1=Rent Party Blues
TTITLE2=Just One of Those Things
TTITLE3=I Must Have That Man
TTITLE4=Maori
TTITLE5=I Just Couldn't Take it Baby
TTITLE6=Wabash Blues
TTITLE7=Under a Blanket of Blue
TTITLE8=My Blackbirds are Bluebirds Now
TTITLE9=Caught
TTITLE10=Love and Kisses
TTITLE11=Riverside Blues
TTITLE12=The Panic is On
TTITLE13=When Buddha Smiles
TTITLE14=I Gotta Get Up and Go to Work
EXTD=YEAR: 2009
EXTT0=
EXTT1=
EXTT2=
EXTT3=
EXTT4=
EXTT5=
EXTT6=
EXTT7=
EXTT8=
EXTT9=
EXTT10=
EXTT11=
EXTT12=
EXTT13=
EXTT14=
PLAYORDER=
